Coordinates
version=1
nRows=24
nColumns=24
inDegrees=yes

Units are S.I. units (second, meters, Newtons, ...)
Angles are in degrees.

endheader
time	pelvis_tilt	pelvis_list	pelvis_rotation	pelvis_tx	pelvis_ty	pelvis_tz	hip_flexion_r	hip_adduction_r	hip_rotation_r	knee_angle_r	ankle_angle_r	subtalar_angle_r	mtp_angle_r	hip_flexion_l	hip_adduction_l	hip_rotation_l	knee_angle_l	ankle_angle_l	subtalar_angle_l	mtp_angle_l	lumbar_extension	lumbar_bending	lumbar_rotation
      1.57000000	     -1.84351936	     -3.11532027	     -1.68511720	     -0.02023825	      0.98239514	      0.02555828	     25.12696847	      3.10080234	    -18.91905841	     -8.74581632	      8.60893522	      0.00000000	      0.00000000	     -5.59468752	     -1.80883309	    -10.40477859	     -9.58069738	     23.28920589	      0.00000000	      0.00000000	    -19.83246052	      1.93106219	     -3.45069580
      1.58000000	     -1.64242972	     -3.05235692	     -1.39352900	     -0.01933136	      0.98083001	      0.02658420	     25.17969097	      2.94697425	    -18.52248557	     -9.81417265	      9.03739121	      0.00000000	      0.00000000	     -6.30635908	     -1.83296652	    -10.12586257	     -9.66721388	     23.72863935	      0.00000000	      0.00000000	    -19.91794682	      2.00987840	     -3.66944850
      1.59000000	     -1.50648240	     -3.08610466	     -0.97537654	     -0.01818645	      0.97921881	      0.02753724	     25.20585809	      2.85292304	    -18.17048113	    -10.83775473	      8.96222696	      0.00000000	      0.00000000	     -6.92393115	     -1.99403122	     -9.99391213	     -9.77644262	     24.00170752	      0.00000000	      0.00000000	    -19.88167334	      2.24161094	     -3.97823020
      1.60000000	     -1.05135711	     -2.92645019	     -0.72243528	     -0.01696294	      0.97789734	      0.02843695	     25.16775861	      2.53990132	    -17.66754019	    -12.62676316	      9.71298361	      0.00000000	      0.00000000	     -7.83247777	     -1.90141462	     -9.50534343	    -10.09934272	     24.70042359	      0.00000000	      0.00000000	    -20.21609131	      2.23958125	     -4.09822051
      1.61000000	     -0.72711202	     -2.84710863	     -0.38984838	     -0.01553848	      0.97649439	      0.02942131	     25.21188157	      2.30377240	    -17.18513959	    -14.37724593	     10.03505796	      0.00000000	      0.00000000	     -8.58402373	     -1.93536244	     -9.18468518	    -10.42482427	     25.11864563	      0.00000000	      0.00000000	    -20.35811475	      2.34197086	     -4.27850009
      1.62000000	     -0.39360255	     -2.86906322	     -0.06670681	     -0.01402213	      0.97522646	      0.03045853	     25.23549901	      2.18331453	    -16.81368492	    -16.15447150	     10.04755892	      0.00000000	      0.00000000	     -9.27685563	     -2.09631795	     -8.85573593	    -10.90889625	     25.47696141	      0.00000000	      0.00000000	    -20.49635863	      2.56158674	     -4.39122732
      1.63000000	     -0.10183400	     -2.92881521	      0.37280645	     -0.01233738	      0.97409244	      0.03144742	     25.20937743	      2.09561780	    -16.41078570	    -17.77827693	      9.93833333	      0.00000000	      0.00000000	     -9.88165056	     -2.33647818	     -8.66526251	    -11.42515862	     25.69454710	      0.00000000	      0.00000000	    -20.55117224	      2.85834846	     -4.61444406
      1.64000000	      0.30637746	     -2.95233282	      0.66237890	     -0.01072104	      0.97324385	      0.03256392	     25.17867959	      2.00789495	    -16.05106913	    -19.66423405	     10.00281439	      0.00000000	      0.00000000	    -10.48519445	     -2.52365217	     -8.29394343	    -12.26508878	     25.98093811	      0.00000000	      0.00000000	    -20.75984733	      3.08153806	     -4.65806400
      1.65000000	      0.49191507	     -2.66556624	      0.94491873	     -0.00932615	      0.97210557	      0.03360220	     25.46787833	      1.58428247	    -15.64383336	    -21.73389576	     10.70763633	      0.00000000	      0.00000000	    -10.56623717	     -2.38366483	     -7.56297242	    -13.66693219	     26.60443020	      0.00000000	      0.00000000	    -20.73508547	      2.96808245	     -4.79506176
      1.66000000	      0.81027929	     -2.80058442	      1.25964505	     -0.00757367	      0.97172300	      0.03492711	     25.31854174	      1.66778163	    -15.40449851	    -23.18954388	     10.54330900	      0.00000000	      0.00000000	    -10.96027639	     -2.73736635	     -7.41159401	    -14.65425754	     26.44195648	      0.00000000	      0.00000000	    -20.81860995	      3.31053599	     -4.83417507
      1.67000000	      1.20157815	     -2.86710277	      1.49189098	     -0.00603045	      0.97170424	      0.03631126	     25.04593868	      1.71390598	    -15.23216264	    -24.54945647	     10.60369731	      0.00000000	      0.00000000	    -11.18919134	     -3.01976415	     -7.13655931	    -16.13765713	     26.27514516	      0.00000000	      0.00000000	    -21.03430186	      3.55442255	     -4.77594026
      1.68000000	      1.42142001	     -2.90089276	      2.01171851	     -0.00477031	      0.97165224	      0.03729958	     24.78980404	      1.62101964	    -15.43348914	    -25.59312121	     11.05695466	      0.00000000	      0.00000000	    -10.79199720	     -3.33996303	     -6.31017779	    -18.41200630	     26.48490808	      0.00000000	      0.00000000	    -21.05905343	      3.84917042	     -5.01603167
      1.69000000	      1.58167474	     -3.04071086	      2.38750373	     -0.00348886	      0.97191609	      0.03872340	     24.47834183	      1.73285453	    -15.60097999	    -26.38109279	     11.21147006	      0.00000000	      0.00000000	    -10.31396960	     -3.78453987	     -5.94917328	    -20.67379694	     25.98056196	      0.00000000	      0.00000000	    -21.02880910	      4.19167974	     -5.07833574
      1.70000000	      1.92298768	     -3.06952765	      2.47596260	     -0.00220778	      0.97277226	      0.04036272	     23.94436422	      1.81733353	    -15.63760311	    -27.14275336	     11.32793102	      0.00000000	      0.00000000	    -10.13414631	     -4.05333849	     -6.01080239	    -22.70610374	     25.10316708	      0.00000000	      0.00000000	    -21.23353569	      4.34977346	     -4.82942469
      1.71000000	      2.01788202	     -3.40212461	      3.11056999	     -0.00111140	      0.97354913	      0.04158247	     23.31503834	      2.09656864	    -16.20775360	    -27.19428751	     11.70608460	      0.00000000	      0.00000000	     -9.11551295	     -4.79696279	     -5.42776314	    -25.64360895	     24.13679021	      0.00000000	      0.00000000	    -21.10658611	      4.95928826	     -5.06034171
      1.72000000	      2.35286600	     -3.29956914	      3.10479963	     -0.00023915	      0.97495130	      0.04332110	     22.53430553	      2.10017191	    -16.36415977	    -27.45317824	     11.90775362	      0.00000000	      0.00000000	     -8.58272451	     -4.95852149	     -5.70136200	    -28.21023724	     23.03823929	      0.00000000	      0.00000000	    -21.37543867	      4.93077220	     -4.70284407
      1.73000000	      2.18643584	     -3.83447188	      3.85289632	      0.00044382	      0.97573209	      0.04439773	     21.99992365	      2.55680185	    -17.24864718	    -27.09559302	     12.07987162	      0.00000000	      0.00000000	     -6.80823320	     -5.96210731	     -5.09395592	    -31.80086318	     21.64863688	      0.00000000	      0.00000000	    -20.95624377	      5.78351507	     -4.91853005
      1.74000000	      2.35056084	     -3.98544516	      4.08214044	      0.00113319	      0.97728549	      0.04594874	     21.12557756	      2.81660050	    -17.58818310	    -26.80583406	     12.46142657	      0.00000000	      0.00000000	     -5.67896554	     -6.47668738	     -5.17170664	    -34.86109297	     19.87736693	      0.00000000	      0.00000000	    -20.99237420	      6.08145691	     -4.73128082
      1.75000000	      2.43619831	     -4.21990831	      4.38997438	      0.00153457	      0.97883993	      0.04748606	     20.24777017	      3.16459749	    -18.05751942	    -26.29210717	     12.67576292	      0.00000000	      0.00000000	     -4.25679946	     -7.10611555	     -5.14145183	    -38.15815322	     18.20964373	      0.00000000	      0.00000000	    -20.95855289	      6.45287937	     -4.52667494
      1.76000000	      2.45317726	     -4.45667288	      4.65965276	      0.00175864	      0.98036504	      0.04894940	     19.40381135	      3.53142400	    -18.49662913	    -25.66758423	     12.80288319	      0.00000000	      0.00000000	     -2.66048058	     -7.70443488	     -5.08847813	    -41.53338997	     16.66840963	      0.00000000	      0.00000000	    -20.85989492	      6.82205116	     -4.29854587
      1.77000000	      2.47231242	     -4.64587634	      4.84921471	      0.00180574	      0.98198441	      0.05040090	     18.55187538	      3.88645842	    -18.78213351	    -25.01857846	     12.92458077	      0.00000000	      0.00000000	     -1.04832845	     -8.21068269	     -5.04813241	    -44.83265625	     15.23182079	      0.00000000	      0.00000000	    -20.79383131	      7.11397588	     -4.01621382
      1.78000000	      2.66047013	     -4.65800225	      4.84925072	      0.00172258	      0.98396481	      0.05201391	     17.55764849	      4.13993104	    -18.67488713	    -24.47977308	     13.20511359	      0.00000000	      0.00000000	      0.26312310	     -8.47798864	     -5.12972254	    -47.86065479	     13.85218500	      0.00000000	      0.00000000	    -20.98061650	      7.15830311	     -3.59449587
      1.79000000	      2.65789789	     -4.78986807	      4.95948476	      0.00149135	      0.98570311	      0.05334304	     16.65407731	      4.47672564	    -18.85159317	    -23.62387850	     13.25297301	      0.00000000	      0.00000000	      1.90699320	     -8.84634594	     -5.10623661	    -50.92990488	     12.80722219	      0.00000000	      0.00000000	    -20.93360780	      7.36797945	     -3.26707393
      1.80000000	      2.61467602	     -4.86445948	      5.04163368	      0.00108056	      0.98736225	      0.05465004	     15.81712801	      4.75605274	    -18.94681229	    -22.80950831	     13.24223369	      0.00000000	      0.00000000	      3.58864097	     -9.08751422	     -5.01409179	    -53.85730143	     12.14949271	      0.00000000	      0.00000000	    -20.86136934	      7.49411424	     -2.96855365
